<svg version="1" xmlns="http://www.w3.org/2000/svg" width="1258.667" height="1258.667" viewBox="0 0 944.000000 944.000000"><path d="M95 295.5c0 189.3.4 296.4 1 298.1.7 1.8.7 2.3-.2 1.8-.7-.4-.8-.3-.4.4.4.6.9 3.1 1.1 5.4 2.2 20.7 2.2 20.5 3.1 24.6.9 4.6 1.1 5.6 2 11.2.4 2.5.8 4.7.9 5 0 .3.9 4.1 1.9 8.5 1.8 8 6.2 24.7 7.3 27.5.3.8.7 1.9.8 2.5 1.1 4.9 9.1 26 11.6 30.7.5 1 .9 2.3.9 2.9 0 1.1 16 34 17 34.9.3.3 1.6 2.5 2.9 5 1.4 2.5 2.7 4.7 3.1 5 .3.3 1.6 2.5 2.9 5 1.3 2.5 3.1 5.4 4 6.5.9 1.1 2.3 3.2 3.1 4.7.7 1.6 1.7 2.8 2.2 2.8.4 0 .8.7.8 1.5s.5 1.5 1 1.5c.6 0 1 .4 1 1 0 1.1 10.6 15.4 17.2 23.1.9 1.1 3.1 3.9 5 6.2 7.5 9.4 42.2 43.1 50.3 48.9.5.4 2.6 2 4.5 3.5 14.1 11.2 33.3 24 50.5 33.5 4.7 2.6 27.4 14 28.5 14.3.7.2 5.8 2.3 9.5 4 4.7 2 25.6 9.9 27.7 10.4.4.1 1.3.3 2 .6.7.2 4 1.1 7.3 2 3.3.9 6.7 1.9 7.5 2.2 2.2.9 2.1.9 6.5 1.7 2.2.4 6 1.4 8.5 2.1 2.5.7 4.8 1.3 5.3 1.4.4 0 .8.1 1 .2.1 0 1.3.2 2.7.5 1.4.2 5 .9 8 1.5s6.9 1.2 8.5 1.4c1.7.1 4.6.5 6.5.8 16 2.5 26.5 3.1 52.5 3.2 22.2 0 36.6-.6 44-1.9 1.7-.3 5-.8 7.5-1 2.5-.3 5.6-.7 7-1.1 1.4-.3 3.9-.7 5.5-1 1.7-.2 4.1-.7 5.5-1 1.4-.3 4.1-.8 6-1 1.9-.3 9.6-2.1 17-4 7.4-2 14.2-3.7 15-3.9 2.5-.7 20.2-6.7 23-7.9 1.4-.6 2.8-1.1 3.2-1.1.3-.1 1-.4 1.4-.9.4-.4 1.3-.7 1.9-.7.7 0 3-.8 5.1-1.7 2.2-.9 4.1-1.7 4.4-1.8 3.3-1 29.2-13.5 32.1-15.6 1.4-.9 3.7-2.1 5.2-2.4 1.5-.4 2.7-1 2.7-1.5 0-.4 1.6-1.5 3.6-2.6 7.2-3.7 24.6-15.2 34.8-22.9 2.9-2.2 6.8-5.1 8.6-6.5 1.8-1.4 4.4-3.5 5.6-4.7 1.3-1.3 2.5-2.3 2.8-2.3.6 0 7.1-5.8 16.9-15 6.2-5.8 9.3-8.9 20.2-20.4 3.2-3.4 15.4-17.9 19.8-23.6 8.1-10.5 18.7-25.7 18.7-26.9 0-.5.6-1.4 1.4-2 .8-.7 2.1-2.6 3-4.4.9-1.8 2.2-4.1 2.9-5.2 11.5-18.4 24.5-46.7 32.9-71.5 2.2-6.3 4.1-12.2 4.3-13 .2-.8 1.7-6.7 3.4-13s3.3-13.1 3.6-15c.3-1.9.8-4.2 1-5 .6-2.3 2.3-11.6 3-16.9.2-1.4.4-2.6.5-2.6.1 0 .3-1.6.5-3.5.6-5.2 1.6-13 2.2-17.5.3-2.2.8-138.2 1-302.2L850 0H95v295.5z"/></svg>